<?xml version="1.0" encoding="utf-8"?>
<!-- Generator: Adobe Illustrator 21.0.2, SVG Export Plug-In . SVG Version: 6.00 Build 0)  -->
<svg version="1.1" id="Layer_2" xmlns="http://www.w3.org/2000/svg" xmlns:xlink="http://www.w3.org/1999/xlink" x="0px" y="0px"
	 viewBox="0 0 33.2 20.6" style="enable-background:new 0 0 33.2 20.6;" xml:space="preserve">
<style type="text/css">
	.st0{opacity:0.8;fill:#F2F4F5;}
</style>
<path class="st0" d="M14.1,9.7V0.1H0.4v0.2H0.2v9.4H0v10.9h16.3V9.7H14.1z M4.7,4h6.6v4.4H4.7V4z M12.7,16.9h-8v-5.2h8V16.9z"/>
<rect x="21.7" y="1" class="st0" width="11.4" height="2.9"/>
<path class="st0" d="M33.1,13.5V5.1H19.3v4.2h-0.8v11.3h3.2h1.8h9.7v-3.8l0,0v-1.9h-3.8v1.9h-5.9v-3.3
	C23.5,13.5,33.1,13.5,33.1,13.5z M23.1,10.8V8.2h6.1v2.6C29.2,10.8,23.1,10.8,23.1,10.8z"/>
<rect x="3.3" y="10.7" class="st0" width="10.9" height="3"/>
</svg>
