<?xml version="1.0" encoding="utf-8"?>
<!-- Generator: Adobe Illustrator 21.0.2, SVG Export Plug-In . SVG Version: 6.00 Build 0)  -->
<svg version="1.1" id="socialBG" xmlns="http://www.w3.org/2000/svg" xmlns:xlink="http://www.w3.org/1999/xlink" x="0px" y="0px"
	 viewBox="0 0 157.1 690.4" style="enable-background:new 0 0 157.1 690.4;" xml:space="preserve">
<style type="text/css">
	.st0{opacity:0.3;fill:#171F27;enable-background:new    ;}
	.st1{opacity:0.4;fill:#171F27;enable-background:new    ;}
	.st2{opacity:0.2;fill:#171F27;enable-background:new    ;}
	.st3{opacity:0.5;fill:#171F27;enable-background:new    ;}
	.st4{opacity:0.7;fill:#171F27;enable-background:new    ;}
	.st5{opacity:0.6;fill:#171F27;enable-background:new    ;}
	.st6{opacity:0.8;fill:#171F27;enable-background:new    ;}
	.st7{fill:#171F27;}
	.st8{opacity:0.9;fill:#171F27;enable-background:new    ;}
	.st9{opacity:0.1;fill:#171F27;enable-background:new    ;}
</style>
<g>
	<rect x="-0.6" y="497.4" class="st0" width="130.6" height="61"/>
	<rect x="130.1" y="558.4" class="st1" width="27" height="105"/>
	<polygon class="st0" points="0,558.4 0,690.4 130.1,690.4 130.1,663.4 130.1,558.4 	"/>
	<polygon class="st1" points="-0.6,558.4 -0.6,690.4 130.1,690.4 130.1,663.4 130.1,558.4 	"/>
</g>
<g>
	<rect x="116.7" class="st2" width="23.7" height="23.7"/>
	<rect x="93" class="st3" width="23.7" height="23.7"/>
	<rect x="69.4" class="st4" width="23.7" height="23.7"/>
	<rect x="45.7" class="st5" width="23.7" height="23.7"/>
	<rect x="22" class="st3" width="23.7" height="23.7"/>
	<rect x="-1.6" class="st2" width="23.7" height="23.7"/>
	<rect x="116.7" y="23.7" class="st3" width="23.7" height="23.7"/>
	<rect x="93" y="23.7" class="st5" width="23.7" height="23.7"/>
	<rect x="69.4" y="23.7" class="st6" width="23.7" height="23.7"/>
	<rect x="45.7" y="23.7" class="st4" width="23.7" height="23.7"/>
	<rect x="22" y="23.7" class="st5" width="23.7" height="23.7"/>
	<rect x="-1.6" y="23.7" class="st1" width="23.7" height="23.7"/>
	<rect x="116.7" y="47.5" class="st5" width="23.7" height="23.7"/>
	<rect x="93" y="47.5" class="st4" width="23.7" height="23.7"/>
	<rect x="69.4" y="47.5" class="st7" width="23.7" height="23.7"/>
	<rect x="45.7" y="47.5" class="st6" width="23.7" height="23.7"/>
	<rect x="22" y="47.5" class="st1" width="23.7" height="23.7"/>
	<rect x="116.7" y="71.2" class="st3" width="23.7" height="23.7"/>
	<rect x="93" y="71.2" class="st5" width="23.7" height="23.7"/>
	<rect x="69.4" y="71.2" class="st8" width="23.7" height="23.7"/>
	<rect x="45.7" y="71.2" class="st4" width="23.7" height="23.7"/>
	<rect x="22" y="71.2" class="st1" width="23.7" height="23.7"/>
	<rect x="116.7" y="95" class="st5" width="23.7" height="23.7"/>
	<rect x="93" y="95" class="st6" width="23.7" height="23.7"/>
	<rect x="69.4" y="95" class="st8" width="23.7" height="23.7"/>
	<rect x="45.7" y="95" class="st5" width="23.7" height="23.7"/>
	<rect x="116.7" y="118.7" class="st3" width="23.7" height="23.7"/>
	<rect x="93" y="118.7" class="st5" width="23.7" height="23.7"/>
	<rect x="69.4" y="118.7" class="st4" width="23.7" height="23.7"/>
	<rect x="45.7" y="118.7" class="st1" width="23.7" height="23.7"/>
	<rect x="116.7" y="142.5" class="st2" width="23.7" height="23.7"/>
	<rect x="93" y="142.5" class="st1" width="23.7" height="23.7"/>
	<rect x="69.4" y="142.5" class="st4" width="23.7" height="23.7"/>
	<rect x="116.7" y="166.2" class="st2" width="23.7" height="23.7"/>
	<rect x="93" y="166.2" class="st5" width="23.7" height="23.7"/>
	<rect x="69.4" y="166.2" class="st6" width="23.7" height="23.7"/>
	<rect x="116.7" y="190" class="st1" width="23.7" height="23.7"/>
	<rect x="116.7" y="213.7" class="st0" width="23.7" height="23.7"/>
	<rect x="93" y="213.7" class="st1" width="23.7" height="23.7"/>
	<rect x="116.7" y="237.5" class="st1" width="23.7" height="23.7"/>
	<rect x="93" y="237.5" class="st1" width="23.7" height="23.7"/>
	<rect x="69.4" y="237.5" class="st5" width="23.7" height="23.7"/>
	<rect x="116.7" y="261.2" class="st1" width="23.7" height="23.7"/>
	<rect x="93" y="261.2" class="st1" width="23.7" height="23.7"/>
	<rect x="69.4" y="261.2" class="st3" width="23.7" height="23.7"/>
	<rect x="116.7" y="285" class="st0" width="23.7" height="23.7"/>
	<rect x="93" y="285" class="st1" width="23.7" height="23.7"/>
	<rect x="69.4" y="285" class="st3" width="23.7" height="23.7"/>
	<rect x="116.7" y="308.7" class="st2" width="23.7" height="23.7"/>
	<rect x="93" y="308.7" class="st0" width="23.7" height="23.7"/>
	<rect x="69.4" y="308.7" class="st0" width="23.7" height="23.7"/>
	<rect x="116.7" y="332.4" class="st1" width="23.7" height="23.7"/>
	<rect x="93" y="332.4" class="st1" width="23.7" height="23.7"/>
	<rect x="69.4" y="332.4" class="st0" width="23.7" height="23.7"/>
	<rect x="116.7" y="356.2" class="st9" width="23.7" height="23.7"/>
	<rect x="93" y="356.2" class="st2" width="23.7" height="23.7"/>
	<rect x="69.4" y="356.2" class="st2" width="23.7" height="23.7"/>
</g>
<rect x="-0.6" y="25.2" class="st5" width="116.6" height="645"/>
</svg>
